<?xml version="1.0" encoding="UTF-8"?>
<svg width="280px" height="280px" viewBox="0 0 280 280" xmlns="http://www.w3.org/2000/svg" xmlns:xlink="http://www.w3.org/1999/xlink" version="1.1">
 <!-- Generated by Pixelmator Pro 1.5.5 -->
 <g id="logo-only">
  <g id="leaf">
   <g id="路径-4">
    <path id="Path" d="M47.705 113.142 C20.84 162.547 51.356 215.699 66.604 242.259 70.88 249.706 73.955 255.063 74.229 257.66 77.082 255.796 81.831 253.647 87.806 250.944 115.236 238.533 168.496 214.436 182.661 152.499 197.104 89.653 137.398 18.632 136.76 21.715 136.441 23.256 119.505 41.152 99.114 60.23 78.722 79.308 55.628 100.334 47.704 113.142 Z" fill="#4ba795" fill-opacity="1" stroke="none"/>
   </g>
   <g id="路径-1">
    <path id="Path-1" d="M113.505 115.478 C67.702 148.106 71.829 209.256 73.891 239.813 74.47 248.38 74.886 254.543 73.993 256.997 77.375 256.572 82.585 256.723 89.14 256.912 119.235 257.782 177.668 259.471 217.55 210.013 258.081 159.859 235.552 69.852 233.627 72.343 232.665 73.588 209.597 82.249 182.906 90.457 156.216 98.666 126.242 107.44 113.505 115.478 Z" fill="#b3e592" fill-opacity="1" stroke="none"/>
   </g>
   <g id="路径-3">
    <path id="Path-2" d="M73.448 257.506 C139.224 262.905 186.623 248.11 215.646 213.121 259.181 160.639 237.384 77.267 233.761 72.625 231.259 71.654 229.215 77.408 225.698 87.309 218.785 106.766 206.185 142.235 173.244 174.126 139.506 213.121 73.448 246.021 73.448 257.506 Z" fill="#5cc87e" fill-opacity="1" stroke="none"/>
   </g>
  </g>
 </g>
</svg>
