<?xml version="1.0" encoding="UTF-8"?>
<svg width="788px" height="280px" viewBox="0 0 788 280" xmlns="http://www.w3.org/2000/svg" xmlns:xlink="http://www.w3.org/1999/xlink" version="1.1">
 <!-- Generated by Pixelmator Pro 1.5.5 -->
 <defs>
  <text id="string" transform="matrix(1.0 0.0 0.0 1.0 285.0 86.54678605575998)" x="1.0" y="108.0" font-family="Times-Bold, Times" font-size="144" text-decoration="none" fill="#02aa94">Lentics</text>
 </defs>
 <use id="Lentics" xlink:href="#string"/>
 <g id="New-Group">
  <g id="路径-4">
   <path id="Path" d="M81.45 108.715 C56.878 153.904 84.79 202.52 98.737 226.814 102.648 233.626 105.461 238.525 105.712 240.901 108.321 239.195 112.665 237.23 118.13 234.757 143.219 223.406 191.934 201.365 204.891 144.714 218.101 87.23 163.49 22.269 162.907 25.089 162.615 26.498 147.124 42.868 128.473 60.318 109.821 77.768 88.698 96.999 81.45 108.715 Z" fill="#4ba795" fill-opacity="1" stroke="none"/>
  </g>
  <g id="路径-1">
   <path id="Path-1" d="M141.636 110.851 C99.742 140.695 103.516 196.627 105.403 224.576 105.932 232.413 106.312 238.05 105.496 240.295 108.589 239.906 113.354 240.043 119.35 240.217 146.877 241.013 200.324 242.557 236.803 197.319 273.875 151.445 253.268 69.119 251.508 71.397 250.628 72.536 229.528 80.458 205.115 87.966 180.702 95.473 153.286 103.499 141.636 110.851 Z" fill="#b3e592" fill-opacity="1" stroke="none"/>
  </g>
  <g id="路径-3">
   <path id="Path-2" d="M104.997 240.76 Q195.242 248.167 235.062 200.163 C274.881 152.158 254.944 75.9 251.63 71.655 249.342 70.766 247.472 76.03 244.255 85.085 237.933 102.882 226.407 135.325 196.277 164.494 165.418 200.163 104.997 230.255 104.997 240.76 Z" fill="#5cc87e" fill-opacity="1" stroke="none"/>
  </g>
 </g>
</svg>
